<svg width="18" height="18" viewBox="0 0 18 18" fill="none" xmlns="http://www.w3.org/2000/svg">
<circle cx="9" cy="9" r="9" fill="#F05C34"/>
<path d="M15.527 5.65234C15.8626 6.47411 16.049 7.37268 16.049 8.31517C16.049 12.2084 12.8929 15.3645 8.99969 15.3645C5.10647 15.3645 1.9504 12.2084 1.9504 8.31517C1.9504 7.37268 2.1368 6.47411 2.47238 5.65234C1.96842 6.64546 1.68262 7.76796 1.68262 8.95783C1.68262 12.9989 4.95858 16.2749 8.99969 16.2749C13.0408 16.2749 16.3168 12.9989 16.3168 8.95783C16.3168 7.76796 16.0309 6.64546 15.527 5.65234Z" fill="white"/>
<path d="M13.048 7.29551C12.2293 8.23516 11.4692 8.29041 10.9128 7.84938C10.9128 7.84938 10.1665 8.77888 9.24032 9.93211C10.8886 11.4653 12.821 13.265 13.0005 13.4416C13.3179 13.7537 12.5277 14.6935 12.167 14.3084C11.9657 14.0926 10.2227 12.1998 8.72528 10.5734C7.39231 12.2329 5.91155 14.0758 5.73421 14.2937C5.404 14.6992 4.56798 13.8329 4.86136 13.5023C5.02064 13.3229 6.68102 11.5495 8.16575 9.96558C7.771 9.5368 7.4131 9.14805 7.13305 8.84384L6.9923 8.70856C6.13607 8.51404 5.7512 8.68136 5.46826 8.64693C4.76889 7.67121 2.7002 5.28189 2.7002 5.28189L2.75516 5.21784L5.11126 7.22615L5.17209 7.14931L2.97803 4.60949L3.03665 4.54145L5.50271 6.78509L5.53058 6.75308L5.55844 6.72107L3.36509 4.16205L3.42448 4.0932L5.87294 6.33845L5.93891 6.26879L3.96769 3.81623L4.02265 3.75222C4.02265 3.75222 6.32597 5.87018 7.25915 6.57696C7.30606 6.88114 7.17777 7.30695 7.39916 8.22028C7.72491 8.52298 8.1767 8.94289 8.68307 9.4138C9.70946 8.31922 10.5407 7.43357 10.5407 7.43357C10.1433 6.81108 10.1809 5.95109 10.9996 5.01144C11.9201 3.95422 13.483 3.1992 14.0488 3.82958C14.6137 4.46076 13.9685 6.2391 13.048 7.29551Z" fill="white"/>
</svg>
