<svg width="16" height="16" viewBox="0 0 16 16" fill="none" xmlns="http://www.w3.org/2000/svg">
<path d="M1.74902 7.33352C1.43837 7.33439 1.13431 7.4232 0.872016 7.58967C0.609726 7.75614 0.399928 7.99347 0.266892 8.2742C0.133857 8.55493 0.0830212 8.86758 0.120267 9.176C0.157512 9.48442 0.281316 9.77599 0.477357 10.017L4.65647 15.1364C4.80548 15.3214 4.99648 15.4682 5.21361 15.5646C5.43074 15.661 5.66774 15.7041 5.90491 15.6905C6.41216 15.6633 6.87013 15.3919 7.16211 14.9458L15.8432 0.964914C15.8446 0.962595 15.8461 0.960276 15.8476 0.957991C15.9291 0.832926 15.9027 0.585079 15.7345 0.429379C15.6884 0.386622 15.6339 0.353773 15.5745 0.332854C15.5152 0.311936 15.4522 0.303391 15.3894 0.307746C15.3266 0.312101 15.2654 0.329264 15.2095 0.358178C15.1535 0.387091 15.1042 0.427144 15.0643 0.475868C15.0612 0.479699 15.058 0.483472 15.0547 0.487187L6.2997 10.379C6.26639 10.4167 6.22592 10.4473 6.18067 10.4692C6.13541 10.4911 6.08625 10.5037 6.03606 10.5064C5.98587 10.5091 5.93564 10.5019 5.88828 10.485C5.84093 10.4681 5.7974 10.442 5.76022 10.4082L2.8546 7.76407C2.55283 7.48743 2.1584 7.33383 1.74902 7.33352Z" fill="#FF0600"/>
</svg>
